<svg width="132" height="98" viewBox="0 0 132 98" fill="none" xmlns="http://www.w3.org/2000/svg">
<g filter="url(#filter0_dd_2602_2972)">
<g clip-path="url(#clip0_2602_2972)">
<rect x="6.85693" y="2.28516" width="117.6" height="84" rx="9.14286" fill="white"/>
<path fill-rule="evenodd" clip-rule="evenodd" d="M6.85742 2.28516H57.2574V41.4852H6.85742V2.28516Z" fill="#1A47B8"/>
<path fill-rule="evenodd" clip-rule="evenodd" d="M57.2574 2.28516L57.2574 7.88516H124.457V2.28516H57.2574ZM57.2574 13.4852V19.0852H124.457V13.4852H57.2574ZM57.2574 24.6852V30.2852H124.457V24.6852H57.2574ZM57.2574 35.8852L57.2574 41.4852H124.457V35.8852H57.2574ZM6.85742 47.0852V52.6852H124.457V47.0852H6.85742ZM6.85742 58.2852V63.8852H124.457V58.2852H6.85742ZM6.85742 69.4852V75.0852H124.457V69.4852H6.85742ZM6.85742 80.6852V86.2852H124.457V80.6852H6.85742Z" fill="#F93939"/>
<path fill-rule="evenodd" clip-rule="evenodd" d="M12.4568 7.88504V13.485H18.0568V7.88504H12.4568ZM23.6568 7.88504V13.485H29.2568V7.88504H23.6568ZM34.8568 7.88504V13.485H40.4568V7.88504H34.8568ZM46.0568 7.88504V13.485H51.6568V7.88504H46.0568ZM40.4568 13.485V19.085H46.0568V13.485H40.4568ZM29.2568 13.485V19.085H34.8568V13.485H29.2568ZM18.0568 13.485V19.085H23.6568V13.485H18.0568ZM12.4568 19.085V24.685H18.0568V19.085H12.4568ZM23.6568 19.085V24.685H29.2568V19.085H23.6568ZM34.8568 19.085V24.685H40.4568V19.085H34.8568ZM46.0568 19.085V24.685H51.6568V19.085H46.0568ZM12.4568 30.285V35.885H18.0568V30.285H12.4568ZM23.6568 30.285V35.885H29.2568V30.285H23.6568ZM34.8568 30.285V35.885H40.4568V30.285H34.8568ZM46.0568 30.285V35.885H51.6568V30.285H46.0568ZM40.4568 24.685V30.285H46.0568V24.685H40.4568ZM29.2568 24.685V30.285H34.8568V24.685H29.2568ZM18.0568 24.685V30.285H23.6568V24.685H18.0568Z" fill="white"/>
</g>
</g>
<defs>
<filter id="filter0_dd_2602_2972" x="-0.000209808" y="-0.000558376" width="131.314" height="97.7143" filterUnits="userSpaceOnUse" color-interpolation-filters="sRGB">
<feFlood flood-opacity="0" result="BackgroundImageFix"/>
<feColorMatrix in="SourceAlpha" type="matrix" values="0 0 0 0 0 0 0 0 0 0 0 0 0 0 0 0 0 0 127 0" result="hardAlpha"/>
<feOffset dy="4.57143"/>
<feGaussianBlur stdDeviation="3.42857"/>
<feComposite in2="hardAlpha" operator="out"/>
<feColorMatrix type="matrix" values="0 0 0 0 0.258824 0 0 0 0 0.278431 0 0 0 0 0.298039 0 0 0 0.08 0"/>
<feBlend mode="normal" in2="BackgroundImageFix" result="effect1_dropShadow_2602_2972"/>
<feColorMatrix in="SourceAlpha" type="matrix" values="0 0 0 0 0 0 0 0 0 0 0 0 0 0 0 0 0 0 127 0" result="hardAlpha"/>
<feOffset/>
<feGaussianBlur stdDeviation="0.285714"/>
<feComposite in2="hardAlpha" operator="out"/>
<feColorMatrix type="matrix" values="0 0 0 0 0.258824 0 0 0 0 0.278431 0 0 0 0 0.298039 0 0 0 0.32 0"/>
<feBlend mode="normal" in2="effect1_dropShadow_2602_2972" result="effect2_dropShadow_2602_2972"/>
<feBlend mode="normal" in="SourceGraphic" in2="effect2_dropShadow_2602_2972" result="shape"/>
</filter>
<clipPath id="clip0_2602_2972">
<rect x="6.85693" y="2.28516" width="117.6" height="84" rx="9.14286" fill="white"/>
</clipPath>
</defs>
</svg>
